<mxfile host="Electron" modified="2024-03-08T15:10:38.214Z" agent="Mozilla/5.0 (Windows NT 10.0; Win64; x64) AppleWebKit/537.36 (KHTML, like Gecko) draw.io/23.1.5 Chrome/120.0.6099.109 Electron/28.1.0 Safari/537.36" etag="aj4vyXPeqc5tzo5dMb_O" version="23.1.5" type="device">
  <diagram name="Страница — 1" id="H3_TXNHEyYoiBCfhFnKR">
    <mxGraphModel dx="523" dy="470" grid="1" gridSize="10" guides="1" tooltips="1" connect="1" arrows="1" fold="1" page="1" pageScale="1" pageWidth="827" pageHeight="1169" math="0" shadow="0">
      <root>
        <mxCell id="0" />
        <mxCell id="1" parent="0" />
        <mxCell id="e7qCcydTKn9Oqm_EpU-7-16" style="edgeStyle=orthogonalEdgeStyle;rounded=0;orthogonalLoop=1;jettySize=auto;html=1;exitX=0.5;exitY=1;exitDx=0;exitDy=0;entryX=0.5;entryY=1;entryDx=0;entryDy=0;startArrow=classic;startFill=1;" parent="1" source="e7qCcydTKn9Oqm_EpU-7-4" target="e7qCcydTKn9Oqm_EpU-7-3" edge="1">
          <mxGeometry relative="1" as="geometry" />
        </mxCell>
        <mxCell id="e7qCcydTKn9Oqm_EpU-7-20" style="edgeStyle=orthogonalEdgeStyle;rounded=0;orthogonalLoop=1;jettySize=auto;html=1;entryX=0.5;entryY=1;entryDx=0;entryDy=0;startArrow=classic;startFill=1;" parent="1" source="e7qCcydTKn9Oqm_EpU-7-4" target="e7qCcydTKn9Oqm_EpU-7-19" edge="1">
          <mxGeometry relative="1" as="geometry">
            <mxPoint x="330" y="350" as="targetPoint" />
          </mxGeometry>
        </mxCell>
        <mxCell id="e7qCcydTKn9Oqm_EpU-7-4" value="Базовая станция" style="shape=hexagon;perimeter=hexagonPerimeter2;whiteSpace=wrap;html=1;fixedSize=1;fillColor=none;verticalAlign=top;" parent="1" vertex="1">
          <mxGeometry x="210" y="390" width="240" height="240" as="geometry" />
        </mxCell>
        <mxCell id="e7qCcydTKn9Oqm_EpU-7-17" style="edgeStyle=orthogonalEdgeStyle;rounded=0;orthogonalLoop=1;jettySize=auto;html=1;exitX=0.5;exitY=1;exitDx=0;exitDy=0;entryX=0.5;entryY=1;entryDx=0;entryDy=0;startArrow=classic;startFill=1;" parent="1" source="e7qCcydTKn9Oqm_EpU-7-3" target="e7qCcydTKn9Oqm_EpU-7-2" edge="1">
          <mxGeometry relative="1" as="geometry" />
        </mxCell>
        <mxCell id="e7qCcydTKn9Oqm_EpU-7-3" value="Центр Коммутации" style="shape=hexagon;perimeter=hexagonPerimeter2;whiteSpace=wrap;html=1;fixedSize=1;fillColor=none;verticalAlign=top;" parent="1" vertex="1">
          <mxGeometry x="250" y="430" width="160" height="160" as="geometry" />
        </mxCell>
        <mxCell id="e7qCcydTKn9Oqm_EpU-7-2" value="Служнбный домен" style="shape=hexagon;perimeter=hexagonPerimeter2;whiteSpace=wrap;html=1;fixedSize=1;fillColor=none;" parent="1" vertex="1">
          <mxGeometry x="290" y="470" width="80" height="80" as="geometry" />
        </mxCell>
        <mxCell id="e7qCcydTKn9Oqm_EpU-7-7" value="Клиент" style="shape=hexagon;perimeter=hexagonPerimeter2;whiteSpace=wrap;html=1;fixedSize=1;fillColor=none;" parent="1" vertex="1">
          <mxGeometry y="470" width="80" height="80" as="geometry" />
        </mxCell>
        <mxCell id="e7qCcydTKn9Oqm_EpU-7-8" style="edgeStyle=orthogonalEdgeStyle;rounded=0;orthogonalLoop=1;jettySize=auto;html=1;entryX=-0.014;entryY=0.501;entryDx=0;entryDy=0;entryPerimeter=0;startArrow=classic;startFill=1;" parent="1" source="e7qCcydTKn9Oqm_EpU-7-7" target="e7qCcydTKn9Oqm_EpU-7-4" edge="1">
          <mxGeometry relative="1" as="geometry" />
        </mxCell>
        <mxCell id="e7qCcydTKn9Oqm_EpU-7-9" style="edgeStyle=orthogonalEdgeStyle;rounded=0;orthogonalLoop=1;jettySize=auto;html=1;exitX=0;exitY=0.5;exitDx=0;exitDy=0;entryX=-0.008;entryY=0.506;entryDx=0;entryDy=0;entryPerimeter=0;startArrow=classic;startFill=1;" parent="1" source="e7qCcydTKn9Oqm_EpU-7-4" target="e7qCcydTKn9Oqm_EpU-7-3" edge="1">
          <mxGeometry relative="1" as="geometry" />
        </mxCell>
        <mxCell id="e7qCcydTKn9Oqm_EpU-7-11" style="edgeStyle=orthogonalEdgeStyle;rounded=0;orthogonalLoop=1;jettySize=auto;html=1;exitX=0;exitY=0.5;exitDx=0;exitDy=0;entryX=-0.017;entryY=0.51;entryDx=0;entryDy=0;entryPerimeter=0;startArrow=classic;startFill=1;" parent="1" source="e7qCcydTKn9Oqm_EpU-7-3" target="e7qCcydTKn9Oqm_EpU-7-2" edge="1">
          <mxGeometry relative="1" as="geometry" />
        </mxCell>
        <mxCell id="e7qCcydTKn9Oqm_EpU-7-12" value="Клиент" style="shape=hexagon;perimeter=hexagonPerimeter2;whiteSpace=wrap;html=1;fixedSize=1;fillColor=none;" parent="1" vertex="1">
          <mxGeometry x="290" y="750" width="80" height="80" as="geometry" />
        </mxCell>
        <mxCell id="e7qCcydTKn9Oqm_EpU-7-13" style="edgeStyle=orthogonalEdgeStyle;rounded=0;orthogonalLoop=1;jettySize=auto;html=1;entryX=0.497;entryY=1.016;entryDx=0;entryDy=0;entryPerimeter=0;" parent="1" source="e7qCcydTKn9Oqm_EpU-7-12" target="e7qCcydTKn9Oqm_EpU-7-4" edge="1">
          <mxGeometry relative="1" as="geometry" />
        </mxCell>
        <mxCell id="e7qCcydTKn9Oqm_EpU-7-23" style="edgeStyle=orthogonalEdgeStyle;rounded=0;orthogonalLoop=1;jettySize=auto;html=1;exitX=0.5;exitY=1;exitDx=0;exitDy=0;entryX=0.5;entryY=1;entryDx=0;entryDy=0;startArrow=classic;startFill=1;" parent="1" source="e7qCcydTKn9Oqm_EpU-7-19" target="e7qCcydTKn9Oqm_EpU-7-21" edge="1">
          <mxGeometry relative="1" as="geometry" />
        </mxCell>
        <mxCell id="e7qCcydTKn9Oqm_EpU-7-39" style="edgeStyle=orthogonalEdgeStyle;rounded=0;orthogonalLoop=1;jettySize=auto;html=1;exitX=1;exitY=0.5;exitDx=0;exitDy=0;entryX=1;entryY=0.5;entryDx=0;entryDy=0;startArrow=classic;startFill=1;" parent="1" source="e7qCcydTKn9Oqm_EpU-7-19" target="e7qCcydTKn9Oqm_EpU-7-21" edge="1">
          <mxGeometry relative="1" as="geometry" />
        </mxCell>
        <mxCell id="e7qCcydTKn9Oqm_EpU-7-19" value="Шлюз" style="shape=hexagon;perimeter=hexagonPerimeter2;whiteSpace=wrap;html=1;fixedSize=1;fillColor=none;verticalAlign=top;" parent="1" vertex="1">
          <mxGeometry x="210" y="70" width="240" height="240" as="geometry" />
        </mxCell>
        <mxCell id="e7qCcydTKn9Oqm_EpU-7-24" style="edgeStyle=orthogonalEdgeStyle;rounded=0;orthogonalLoop=1;jettySize=auto;html=1;exitX=0.5;exitY=1;exitDx=0;exitDy=0;entryX=0.5;entryY=1;entryDx=0;entryDy=0;startArrow=classic;startFill=1;" parent="1" source="e7qCcydTKn9Oqm_EpU-7-21" target="e7qCcydTKn9Oqm_EpU-7-22" edge="1">
          <mxGeometry relative="1" as="geometry" />
        </mxCell>
        <mxCell id="e7qCcydTKn9Oqm_EpU-7-40" style="edgeStyle=orthogonalEdgeStyle;rounded=0;orthogonalLoop=1;jettySize=auto;html=1;exitX=1;exitY=0.5;exitDx=0;exitDy=0;entryX=1;entryY=0.5;entryDx=0;entryDy=0;startArrow=classic;startFill=1;" parent="1" source="e7qCcydTKn9Oqm_EpU-7-21" target="e7qCcydTKn9Oqm_EpU-7-22" edge="1">
          <mxGeometry relative="1" as="geometry" />
        </mxCell>
        <mxCell id="e7qCcydTKn9Oqm_EpU-7-21" value="Сессия&lt;br&gt;(IP/Телефон)" style="shape=hexagon;perimeter=hexagonPerimeter2;whiteSpace=wrap;html=1;fixedSize=1;fillColor=none;verticalAlign=top;" parent="1" vertex="1">
          <mxGeometry x="250" y="110" width="160" height="160" as="geometry" />
        </mxCell>
        <mxCell id="e7qCcydTKn9Oqm_EpU-7-22" value="Служнбный домен" style="shape=hexagon;perimeter=hexagonPerimeter2;whiteSpace=wrap;html=1;fixedSize=1;fillColor=none;" parent="1" vertex="1">
          <mxGeometry x="290" y="150" width="80" height="80" as="geometry" />
        </mxCell>
        <mxCell id="e7qCcydTKn9Oqm_EpU-7-25" style="edgeStyle=orthogonalEdgeStyle;rounded=0;orthogonalLoop=1;jettySize=auto;html=1;exitX=0.5;exitY=1;exitDx=0;exitDy=0;" parent="1" source="e7qCcydTKn9Oqm_EpU-7-22" target="e7qCcydTKn9Oqm_EpU-7-22" edge="1">
          <mxGeometry relative="1" as="geometry" />
        </mxCell>
        <mxCell id="e7qCcydTKn9Oqm_EpU-7-38" style="edgeStyle=orthogonalEdgeStyle;rounded=0;orthogonalLoop=1;jettySize=auto;html=1;entryX=1;entryY=0.5;entryDx=0;entryDy=0;startArrow=classic;startFill=1;" parent="1" source="e7qCcydTKn9Oqm_EpU-7-31" target="e7qCcydTKn9Oqm_EpU-7-19" edge="1">
          <mxGeometry relative="1" as="geometry" />
        </mxCell>
        <mxCell id="e7qCcydTKn9Oqm_EpU-7-43" style="edgeStyle=orthogonalEdgeStyle;rounded=0;orthogonalLoop=1;jettySize=auto;html=1;exitX=0.5;exitY=1;exitDx=0;exitDy=0;entryX=0.5;entryY=1;entryDx=0;entryDy=0;startArrow=classic;startFill=1;" parent="1" source="e7qCcydTKn9Oqm_EpU-7-31" target="e7qCcydTKn9Oqm_EpU-7-33" edge="1">
          <mxGeometry relative="1" as="geometry" />
        </mxCell>
        <mxCell id="e7qCcydTKn9Oqm_EpU-7-31" value="Базовая станция" style="shape=hexagon;perimeter=hexagonPerimeter2;whiteSpace=wrap;html=1;fixedSize=1;fillColor=none;verticalAlign=top;" parent="1" vertex="1">
          <mxGeometry x="540" y="70" width="240" height="240" as="geometry" />
        </mxCell>
        <mxCell id="e7qCcydTKn9Oqm_EpU-7-32" style="edgeStyle=orthogonalEdgeStyle;rounded=0;orthogonalLoop=1;jettySize=auto;html=1;exitX=0.5;exitY=1;exitDx=0;exitDy=0;entryX=0.5;entryY=1;entryDx=0;entryDy=0;startArrow=classic;startFill=1;" parent="1" source="e7qCcydTKn9Oqm_EpU-7-33" target="e7qCcydTKn9Oqm_EpU-7-34" edge="1">
          <mxGeometry relative="1" as="geometry" />
        </mxCell>
        <mxCell id="e7qCcydTKn9Oqm_EpU-7-33" value="Центр Коммутации" style="shape=hexagon;perimeter=hexagonPerimeter2;whiteSpace=wrap;html=1;fixedSize=1;fillColor=none;verticalAlign=top;" parent="1" vertex="1">
          <mxGeometry x="580" y="110" width="160" height="160" as="geometry" />
        </mxCell>
        <mxCell id="e7qCcydTKn9Oqm_EpU-7-34" value="Служнбный домен" style="shape=hexagon;perimeter=hexagonPerimeter2;whiteSpace=wrap;html=1;fixedSize=1;fillColor=none;" parent="1" vertex="1">
          <mxGeometry x="620" y="150" width="80" height="80" as="geometry" />
        </mxCell>
        <mxCell id="e7qCcydTKn9Oqm_EpU-7-35" style="edgeStyle=orthogonalEdgeStyle;rounded=0;orthogonalLoop=1;jettySize=auto;html=1;exitX=0;exitY=0.5;exitDx=0;exitDy=0;entryX=-0.008;entryY=0.506;entryDx=0;entryDy=0;entryPerimeter=0;startArrow=classic;startFill=1;" parent="1" source="e7qCcydTKn9Oqm_EpU-7-31" target="e7qCcydTKn9Oqm_EpU-7-33" edge="1">
          <mxGeometry relative="1" as="geometry" />
        </mxCell>
        <mxCell id="e7qCcydTKn9Oqm_EpU-7-36" style="edgeStyle=orthogonalEdgeStyle;rounded=0;orthogonalLoop=1;jettySize=auto;html=1;exitX=0;exitY=0.5;exitDx=0;exitDy=0;entryX=-0.017;entryY=0.51;entryDx=0;entryDy=0;entryPerimeter=0;startArrow=classic;startFill=1;" parent="1" source="e7qCcydTKn9Oqm_EpU-7-33" target="e7qCcydTKn9Oqm_EpU-7-34" edge="1">
          <mxGeometry relative="1" as="geometry" />
        </mxCell>
        <mxCell id="e7qCcydTKn9Oqm_EpU-7-42" style="edgeStyle=orthogonalEdgeStyle;rounded=0;orthogonalLoop=1;jettySize=auto;html=1;entryX=0.5;entryY=1;entryDx=0;entryDy=0;startArrow=classic;startFill=1;" parent="1" source="e7qCcydTKn9Oqm_EpU-7-41" target="e7qCcydTKn9Oqm_EpU-7-31" edge="1">
          <mxGeometry relative="1" as="geometry" />
        </mxCell>
        <mxCell id="e7qCcydTKn9Oqm_EpU-7-41" value="Клиент" style="shape=hexagon;perimeter=hexagonPerimeter2;whiteSpace=wrap;html=1;fixedSize=1;fillColor=none;" parent="1" vertex="1">
          <mxGeometry x="620" y="380" width="80" height="80" as="geometry" />
        </mxCell>
        <mxCell id="e7qCcydTKn9Oqm_EpU-7-49" style="edgeStyle=orthogonalEdgeStyle;rounded=0;orthogonalLoop=1;jettySize=auto;html=1;exitX=0.5;exitY=0;exitDx=0;exitDy=0;entryX=0.499;entryY=-0.005;entryDx=0;entryDy=0;entryPerimeter=0;startArrow=classic;startFill=1;" parent="1" source="e7qCcydTKn9Oqm_EpU-7-4" target="e7qCcydTKn9Oqm_EpU-7-3" edge="1">
          <mxGeometry relative="1" as="geometry">
            <mxPoint x="340" y="419.5" as="sourcePoint" />
            <mxPoint x="379" y="420.5" as="targetPoint" />
          </mxGeometry>
        </mxCell>
        <mxCell id="e7qCcydTKn9Oqm_EpU-7-50" style="edgeStyle=orthogonalEdgeStyle;rounded=0;orthogonalLoop=1;jettySize=auto;html=1;exitX=0.5;exitY=0;exitDx=0;exitDy=0;entryX=0.499;entryY=-0.004;entryDx=0;entryDy=0;entryPerimeter=0;startArrow=classic;startFill=1;" parent="1" target="e7qCcydTKn9Oqm_EpU-7-2" edge="1">
          <mxGeometry relative="1" as="geometry">
            <mxPoint x="329.92" y="430" as="sourcePoint" />
            <mxPoint x="329.92" y="468" as="targetPoint" />
          </mxGeometry>
        </mxCell>
      </root>
    </mxGraphModel>
  </diagram>
</mxfile>
